<svg xmlns="http://www.w3.org/2000/svg" viewBox="0 0 575 575"><defs><style>.cls-1{font-size:51.9px;fill:#7d0633;font-family:Montserrat-Light, Montserrat;font-weight:300;}</style></defs><title>rueda-03</title><g id="Capa_7" data-name="Capa 7"><text class="cls-1" transform="matrix(1, 0.08, -0.08, 1, 300.32, 49.97)">I</text><text class="cls-1" transform="matrix(0.98, 0.2, -0.2, 0.98, 314.7, 50.32)">N</text><text class="cls-1" transform="matrix(0.94, 0.35, -0.35, 0.94, 354.79, 58.59)">V</text><text class="cls-1" transform="matrix(0.88, 0.48, -0.48, 0.88, 387.07, 70.65)">E</text><text class="cls-1" transform="matrix(0.8, 0.6, -0.6, 0.8, 416.5, 86.87)">S</text><text class="cls-1" transform="matrix(0.72, 0.69, -0.69, 0.72, 441.06, 105.09)">T</text><text class="cls-1" transform="matrix(0.66, 0.75, -0.75, 0.66, 461.48, 124.9)">I</text><text class="cls-1" transform="matrix(0.57, 0.82, -0.82, 0.57, 471.53, 135.23)">G</text><text class="cls-1" transform="matrix(0.42, 0.91, -0.91, 0.42, 493.9, 166.9)">O</text><text class="cls-1" transform="matrix(0.32, 0.95, -0.95, 0.32, 511.2, 205.7)"> </text><text class="cls-1" transform="matrix(0.26, 0.97, -0.96, 0.26, 515.3, 217.87)">•</text><text class="cls-1" transform="matrix(0.21, 0.98, -0.98, 0.21, 518.99, 231.44)"> </text><text class="cls-1" transform="matrix(0.09, 1, -1, 0.09, 522.44, 243.37)">D</text><text class="cls-1" transform="matrix(-0.02, 1, -1, -0.02, 525.62, 285.14)">I</text><text class="cls-1" transform="matrix(-0.12, 0.99, -0.99, -0.12, 525.71, 299.66)">S</text><text class="cls-1" transform="matrix(-0.25, 0.97, -0.97, -0.25, 522.34, 329.95)">E</text><text class="cls-1" transform="matrix(-0.4, 0.92, -0.92, -0.4, 514.39, 362.47)">Ñ</text><text class="cls-1" transform="matrix(-0.55, 0.83, -0.83, -0.55, 498.31, 400.02)">O</text><text class="cls-1" transform="matrix(-0.64, 0.77, -0.77, -0.64, 474.23, 435.03)"> </text><text class="cls-1" transform="matrix(-0.69, 0.73, -0.73, -0.69, 465.99, 444.89)">•</text><text class="cls-1" transform="matrix(-0.73, 0.69, -0.69, -0.73, 456.35, 455.12)"> </text><text class="cls-1" transform="matrix(-0.79, 0.61, -0.61, -0.79, 447.74, 464.2)">C</text><text class="cls-1" transform="matrix(-0.87, 0.49, -0.49, -0.87, 419.37, 486.24)">R</text><text class="cls-1" transform="matrix(-0.94, 0.35, -0.35, -0.94, 387.75, 503.78)">E</text><text class="cls-1" transform="matrix(-0.98, 0.2, -0.2, -0.98, 356.6, 515.99)">O</text><text class="cls-1" transform="matrix(-1, 0.08, -0.08, -1, 314.83, 523.61)"> </text><text class="cls-1" transform="matrix(-1, 0.03, -0.03, -1, 302.02, 524.72)">•</text><text class="cls-1" transform="matrix(-1, -0.03, 0.03, -1, 287.94, 525.1)"> </text><text class="cls-1" transform="matrix(-1, -0.09, 0.09, -1, 275.12, 524.77)">I</text><text class="cls-1" transform="matrix(-0.98, -0.2, 0.2, -0.98, 260.73, 524.38)">N</text><text class="cls-1" transform="matrix(-0.94, -0.35, 0.35, -0.94, 220.67, 516.01)">V</text><text class="cls-1" transform="matrix(-0.88, -0.48, 0.48, -0.88, 188.41, 503.87)">E</text><text class="cls-1" transform="matrix(-0.8, -0.6, 0.6, -0.8, 159.02, 487.58)">S</text><text class="cls-1" transform="matrix(-0.72, -0.69, 0.69, -0.72, 134.5, 469.31)">T</text><text class="cls-1" transform="matrix(-0.66, -0.75, 0.75, -0.66, 114.14, 449.44)">I</text><text class="cls-1" transform="matrix(-0.57, -0.82, 0.82, -0.57, 104.11, 439.09)">G</text><text class="cls-1" transform="matrix(-0.42, -0.91, 0.91, -0.42, 81.81, 407.36)">O</text><text class="cls-1" transform="matrix(-0.31, -0.95, 0.95, -0.31, 64.61, 368.53)"> </text><text class="cls-1" transform="matrix(-0.26, -0.97, 0.97, -0.26, 60.53, 356.33)">•</text><text class="cls-1" transform="matrix(-0.2, -0.98, 0.98, -0.2, 56.89, 342.77)"> </text><text class="cls-1" transform="matrix(-0.09, -1, 1, -0.09, 53.46, 330.8)">D</text><text class="cls-1" transform="matrix(0.03, -1, 1, 0.03, 50.38, 289.05)">I</text><text class="cls-1" transform="matrix(0.12, -0.99, 0.99, 0.12, 50.33, 274.54)">S</text><text class="cls-1" transform="matrix(0.25, -0.97, 0.97, 0.25, 53.78, 244.23)">E</text><text class="cls-1" transform="matrix(0.4, -0.92, 0.92, 0.4, 61.8, 211.76)">Ñ</text><text class="cls-1" transform="matrix(0.55, -0.83, 0.83, 0.55, 77.97, 174.23)">O</text><text class="cls-1" transform="matrix(0.65, -0.76, 0.76, 0.65, 102.14, 139.28)"> </text><text class="cls-1" transform="matrix(0.69, -0.73, 0.73, 0.69, 110.41, 129.45)">•</text><text class="cls-1" transform="matrix(0.73, -0.69, 0.69, 0.73, 120.06, 119.24)"> </text><text class="cls-1" transform="matrix(0.79, -0.61, 0.61, 0.79, 128.7, 110.18)">C</text><text class="cls-1" transform="matrix(0.88, -0.48, 0.48, 0.88, 157.13, 88.21)">R</text><text class="cls-1" transform="matrix(0.94, -0.35, 0.35, 0.94, 188.79, 70.74)">E</text><text class="cls-1" transform="matrix(0.98, -0.2, 0.2, 0.98, 219.96, 58.62)">O</text><text class="cls-1" transform="matrix(1, -0.08, 0.08, 1, 261.79, 51.09)"> </text><text class="cls-1" transform="matrix(1, -0.02, 0.02, 1, 274.58, 50.02)">•</text><text class="cls-1" transform="matrix(1, 0.03, -0.03, 1, 288.6, 49.68)"> </text></g></svg>