<svg xmlns="http://www.w3.org/2000/svg" viewBox="0 0 575 575"><defs><style>.cls-1{font-size:34.3px;}.cls-1,.cls-2{fill:#7d0633;}.cls-1,.cls-2,.cls-3,.cls-4{font-family:Montserrat-Light, Montserrat;font-weight:300;}.cls-2{font-size:34.1px;}.cls-3{font-size:48px;}.cls-4{font-size:18px;}</style></defs><title>rueda_logo</title><g id="Capa_7" data-name="Capa 7"><text class="cls-1" transform="matrix(1, 0.06, -0.06, 1, 295.61, 49.8)"> </text><text class="cls-2" transform="matrix(1, 0.09, -0.09, 1, 304.27, 50.27)">I</text><text class="cls-2" transform="matrix(0.99, 0.17, -0.17, 0.99, 313.89, 50.77)">N</text><text class="cls-2" transform="matrix(0.96, 0.27, -0.27, 0.96, 340.67, 55.34)">V</text><text class="cls-2" transform="matrix(0.93, 0.36, -0.36, 0.93, 362.76, 61.49)">E</text><text class="cls-2" transform="matrix(0.9, 0.44, -0.44, 0.9, 383.57, 69.53)">S</text><text class="cls-2" transform="matrix(0.86, 0.51, -0.51, 0.86, 401.77, 78.51)">T</text><text class="cls-2" transform="matrix(0.83, 0.57, -0.57, 0.82, 417.88, 88.33)">I</text><text class="cls-2" transform="matrix(0.78, 0.63, -0.63, 0.78, 426.02, 93.52)">G</text><text class="cls-2" transform="matrix(0.71, 0.71, -0.71, 0.71, 446.18, 109.55)">O</text><text class="cls-2" transform="matrix(0.65, 0.76, -0.76, 0.65, 465.78, 129.75)"> </text><text class="cls-2" transform="matrix(0.62, 0.78, -0.78, 0.62, 471.33, 136.24)">•</text><text class="cls-2" transform="matrix(0.59, 0.81, -0.81, 0.59, 477.13, 143.57)"> </text><text class="cls-2" transform="matrix(0.53, 0.85, -0.85, 0.53, 482.37, 150.08)">D</text><text class="cls-2" transform="matrix(0.46, 0.89, -0.89, 0.46, 496.71, 173.8)">I</text><text class="cls-2" transform="matrix(0.4, 0.92, -0.92, 0.4, 501.35, 182.35)">S</text><text class="cls-2" transform="matrix(0.32, 0.95, -0.95, 0.32, 509.57, 200.87)">E</text><text class="cls-2" transform="matrix(0.22, 0.98, -0.98, 0.22, 516.8, 221.9)">Ñ</text><text class="cls-2" transform="matrix(0.1, 1, -0.99, 0.1, 522.77, 248.37)">O</text><text class="cls-2" transform="matrix(0.03, 1, -1, 0.03, 525.31, 276.41)"> </text><text class="cls-2" transform="matrix(-0.01, 1, -1, -0.01, 525.55, 284.97)">•</text><text class="cls-2" transform="matrix(-0.06, 1, -1, -0.06, 525.51, 294.27)"> </text><text class="cls-2" transform="matrix(-0.11, 0.99, -0.99, -0.11, 525.32, 302.69)">C</text><text class="cls-2" transform="matrix(-0.21, 0.98, -0.98, -0.21, 522.62, 326.41)">R</text><text class="cls-2" transform="matrix(-0.31, 0.95, -0.95, -0.31, 517.48, 349.86)">E</text><text class="cls-2" transform="matrix(-0.41, 0.91, -0.91, -0.41, 510.82, 371.07)">O</text><text class="cls-2" transform="matrix(-0.48, 0.88, -0.88, -0.48, 499.02, 396.63)"> </text><text class="cls-2" transform="matrix(-0.51, 0.86, -0.86, -0.51, 494.95, 404.16)">•</text><text class="cls-2" transform="matrix(-0.54, 0.84, -0.84, -0.54, 490.2, 412.18)"> </text><text class="cls-2" transform="matrix(-0.57, 0.82, -0.82, -0.57, 485.6, 419.37)">I</text><text class="cls-2" transform="matrix(-0.64, 0.77, -0.77, -0.64, 480.36, 427.47)">N</text><text class="cls-2" transform="matrix(-0.71, 0.7, -0.7, -0.71, 463.03, 448.42)">V</text><text class="cls-2" transform="matrix(-0.78, 0.63, -0.63, -0.78, 446.73, 464.5)">E</text><text class="cls-2" transform="matrix(-0.83, 0.56, -0.56, -0.83, 429.41, 478.58)">S</text><text class="cls-2" transform="matrix(-0.87, 0.49, -0.49, -0.87, 412.57, 489.95)">T</text><text class="cls-2" transform="matrix(-0.9, 0.44, -0.44, -0.9, 396.06, 499.09)">I</text><text class="cls-2" transform="matrix(-0.93, 0.37, -0.37, -0.93, 387.53, 503.59)">G</text><text class="cls-2" transform="matrix(-0.97, 0.26, -0.26, -0.97, 363.63, 513.15)">O</text><text class="cls-2" transform="matrix(-0.98, 0.18, -0.18, -0.98, 336.36, 520.12)"> </text><text class="cls-2" transform="matrix(-0.99, 0.15, -0.15, -0.99, 327.97, 521.71)">•</text><text class="cls-2" transform="matrix(-0.99, 0.11, -0.11, -0.99, 318.74, 523.08)"> </text><text class="cls-2" transform="matrix(-1, 0.03, -0.03, -1, 310.49, 524.38)">D</text><text class="cls-2" transform="matrix(-1, -0.03, 0.03, -1, 282.83, 524.93)">I</text><text class="cls-2" transform="matrix(-0.99, -0.11, 0.11, -0.99, 273.04, 524.75)">S</text><text class="cls-2" transform="matrix(-0.98, -0.19, 0.19, -0.98, 252.87, 522.68)">E</text><text class="cls-2" transform="matrix(-0.96, -0.3, 0.3, -0.96, 231.01, 518.52)">Ñ</text><text class="cls-2" transform="matrix(-0.92, -0.4, 0.4, -0.91, 205.08, 510.58)">O</text><text class="cls-2" transform="matrix(-0.88, -0.47, 0.47, -0.88, 179.48, 498.86)"> </text><text class="cls-2" transform="matrix(-0.86, -0.51, 0.51, -0.86, 171.96, 494.83)">•</text><text class="cls-2" transform="matrix(-0.84, -0.54, 0.54, -0.84, 163.91, 490.09)"> </text><text class="cls-2" transform="matrix(-0.8, -0.6, 0.6, -0.8, 156.69, 485.8)">C</text><text class="cls-2" transform="matrix(-0.74, -0.67, 0.67, -0.74, 137.49, 471.63)">R</text><text class="cls-2" transform="matrix(-0.67, -0.74, 0.74, -0.67, 119.74, 455.47)">E</text><text class="cls-2" transform="matrix(-0.59, -0.81, 0.81, -0.59, 104.65, 439.09)">O</text><text class="cls-2" transform="matrix(-0.53, -0.85, 0.85, -0.53, 88.35, 416.18)"> </text><text class="cls-2" transform="matrix(-0.49, -0.87, 0.87, -0.49, 83.83, 408.92)">•</text><text class="cls-2" transform="matrix(-0.46, -0.89, 0.89, -0.46, 79.21, 400.79)"> </text><text class="cls-2" transform="matrix(-0.43, -0.9, 0.9, -0.43, 75.25, 393.21)">I</text><text class="cls-2" transform="matrix(-0.36, -0.94, 0.93, -0.35, 70.81, 384.65)">N</text><text class="cls-2" transform="matrix(-0.25, -0.97, 0.97, -0.25, 61.25, 359.23)">V</text><text class="cls-2" transform="matrix(-0.16, -0.99, 0.99, -0.16, 55.41, 337.07)">E</text><text class="cls-2" transform="matrix(-0.07, -1, 1, -0.07, 51.85, 315.04)">S</text><text class="cls-2" transform="matrix(0.01, -1, 1, 0.01, 50.42, 294.77)">T</text><text class="cls-2" transform="matrix(0.07, -1, 1, 0.07, 50.73, 275.93)">I</text><text class="cls-2" transform="matrix(0.14, -0.99, 0.99, 0.14, 51.08, 266.28)">G</text><text class="cls-2" transform="matrix(0.25, -0.97, 0.97, 0.25, 54.65, 240.75)">O</text><text class="cls-2" transform="matrix(0.33, -0.95, 0.94, 0.33, 62.13, 213.64)"> </text><text class="cls-2" transform="matrix(0.36, -0.93, 0.93, 0.36, 64.92, 205.55)">•</text><text class="cls-2" transform="matrix(0.4, -0.92, 0.92, 0.4, 68.3, 196.87)"> </text><text class="cls-2" transform="matrix(0.47, -0.88, 0.88, 0.47, 71.27, 189.05)">D</text><text class="cls-2" transform="matrix(0.54, -0.85, 0.85, 0.53, 84.5, 164.7)">I</text><text class="cls-2" transform="matrix(0.59, -0.81, 0.81, 0.59, 89.55, 156.39)">S</text><text class="cls-2" transform="matrix(0.66, -0.75, 0.75, 0.66, 101.39, 139.95)">E</text><text class="cls-2" transform="matrix(0.73, -0.68, 0.68, 0.73, 115.91, 123.05)">Ñ</text><text class="cls-2" transform="matrix(0.81, -0.59, 0.59, 0.8, 135.71, 104.5)">O</text><text class="cls-2" transform="matrix(0.85, -0.53, 0.53, 0.85, 158.57, 88.1)"> </text><text class="cls-2" transform="matrix(0.87, -0.5, 0.5, 0.87, 165.81, 83.55)">•</text><text class="cls-2" transform="matrix(0.89, -0.47, 0.47, 0.89, 173.91, 78.9)"> </text><text class="cls-2" transform="matrix(0.92, -0.4, 0.4, 0.92, 181.21, 74.75)">C</text><text class="cls-2" transform="matrix(0.95, -0.31, 0.31, 0.95, 203.02, 65.1)">R</text><text class="cls-2" transform="matrix(0.98, -0.21, 0.21, 0.98, 225.85, 57.7)">E</text><text class="cls-2" transform="matrix(0.99, -0.11, 0.11, 0.99, 247.54, 52.76)">O</text><text class="cls-2" transform="matrix(1, -0.03, 0.03, 1, 275.56, 50.04)"> </text><text class="cls-1" transform="matrix(1, 0, 0, 1, 284.11, 49.74)">•</text><text class="cls-3" transform="matrix(1, 0.06, -0.06, 1, 293.4, 49.67)"> </text><text class="cls-4" transform="matrix(1, 0.08, -0.08, 1, 305.6, 50.41)"> </text><text class="cls-4" transform="matrix(1, 0.1, -0.1, 0.99, 310.1, 50.78)"> </text><text class="cls-4" transform="matrix(0.99, 0.12, -0.12, 0.99, 314.57, 51.24)"> </text><text class="cls-4" transform="matrix(0.99, 0.14, -0.14, 0.99, 319.07, 51.78)"> </text><text class="cls-4" transform="matrix(0.99, 0.16, -0.16, 0.99, 323.54, 52.41)"> </text><text class="cls-4" transform="matrix(0.98, 0.18, -0.18, 0.98, 328, 53.12)"> </text><text class="cls-4" transform="matrix(0.98, 0.2, -0.2, 0.98, 332.46, 53.92)"> </text><text class="cls-4" transform="matrix(0.98, 0.21, -0.21, 0.98, 336.89, 54.8)"> </text><text class="cls-4" transform="matrix(0.97, 0.23, -0.23, 0.97, 341.3, 55.77)"> </text></g></svg>